<?xml version="1.0" encoding="us-ascii" standalone="no"?><svg xmlns="http://www.w3.org/2000/svg" xmlns:xlink="http://www.w3.org/1999/xlink" contentStyleType="text/css" height="1615px" preserveAspectRatio="none" style="width:996px;height:1615px;background:#FFFFFF;" version="1.1" viewBox="0 0 996 1615" width="996px" zoomAndPan="magnify"><defs/><g><rect fill="none" height="48.7031" style="stroke:#000000;stroke-width:1.5;" width="506" x="484.5" y="342.4219"/><rect fill="none" height="48.7031" style="stroke:#000000;stroke-width:1.5;" width="506" x="484.5" y="738.9922"/><line style="stroke:#181818;stroke-width:0.5;stroke-dasharray:5.0,5.0;" x1="22" x2="22" y1="82.6094" y2="1533.1328"/><line style="stroke:#181818;stroke-width:0.5;stroke-dasharray:5.0,5.0;" x1="225.5" x2="225.5" y1="82.6094" y2="1533.1328"/><line style="stroke:#181818;stroke-width:0.5;stroke-dasharray:5.0,5.0;" x1="369" x2="369" y1="82.6094" y2="1533.1328"/><line style="stroke:#181818;stroke-width:0.5;stroke-dasharray:5.0,5.0;" x1="540.5" x2="540.5" y1="82.6094" y2="1533.1328"/><line style="stroke:#181818;stroke-width:0.5;stroke-dasharray:5.0,5.0;" x1="686" x2="686" y1="82.6094" y2="1533.1328"/><line style="stroke:#181818;stroke-width:0.5;stroke-dasharray:5.0,5.0;" x1="830.5" x2="830.5" y1="82.6094" y2="1533.1328"/><line style="stroke:#181818;stroke-width:0.5;stroke-dasharray:5.0,5.0;" x1="924.5" x2="924.5" y1="82.6094" y2="1533.1328"/><text fill="#000000" font-family="sans-serif" font-size="14" lengthAdjust="spacing" textLength="29" x="5" y="79.5332">User</text><ellipse cx="22.5" cy="13.5" fill="#E2E2F0" rx="8" ry="8" style="stroke:#181818;stroke-width:0.5;"/><path d="M22.5,21.5 L22.5,48.5 M9.5,29.5 L35.5,29.5 M22.5,48.5 L9.5,63.5 M22.5,48.5 L35.5,63.5 " fill="none" style="stroke:#181818;stroke-width:0.5;"/><text fill="#000000" font-family="sans-serif" font-size="14" lengthAdjust="spacing" textLength="29" x="5" y="1546.666">User</text><ellipse cx="22.5" cy="1558.2422" fill="#E2E2F0" rx="8" ry="8" style="stroke:#181818;stroke-width:0.5;"/><path d="M22.5,1566.2422 L22.5,1593.2422 M9.5,1574.2422 L35.5,1574.2422 M22.5,1593.2422 L9.5,1608.2422 M22.5,1593.2422 L35.5,1608.2422 " fill="none" style="stroke:#181818;stroke-width:0.5;"/><rect fill="#E2E2F0" height="31.6094" rx="2.5" ry="2.5" style="stroke:#181818;stroke-width:0.5;" width="60" x="195.5" y="50"/><text fill="#000000" font-family="sans-serif" font-size="14" lengthAdjust="spacing" textLength="46" x="202.5" y="71.5332">System</text><rect fill="#E2E2F0" height="31.6094" rx="2.5" ry="2.5" style="stroke:#181818;stroke-width:0.5;" width="60" x="195.5" y="1532.1328"/><text fill="#000000" font-family="sans-serif" font-size="14" lengthAdjust="spacing" textLength="46" x="202.5" y="1553.666">System</text><rect fill="#E2E2F0" height="31.6094" rx="2.5" ry="2.5" style="stroke:#181818;stroke-width:0.5;" width="107" x="316" y="50"/><text fill="#000000" font-family="sans-serif" font-size="14" lengthAdjust="spacing" textLength="93" x="323" y="71.5332">TaskController</text><rect fill="#E2E2F0" height="31.6094" rx="2.5" ry="2.5" style="stroke:#181818;stroke-width:0.5;" width="107" x="316" y="1532.1328"/><text fill="#000000" font-family="sans-serif" font-size="14" lengthAdjust="spacing" textLength="93" x="323" y="1553.666">TaskController</text><rect fill="#E2E2F0" height="31.6094" rx="2.5" ry="2.5" style="stroke:#181818;stroke-width:0.5;" width="92" x="494.5" y="50"/><text fill="#000000" font-family="sans-serif" font-size="14" lengthAdjust="spacing" textLength="78" x="501.5" y="71.5332">TaskService</text><rect fill="#E2E2F0" height="31.6094" rx="2.5" ry="2.5" style="stroke:#181818;stroke-width:0.5;" width="92" x="494.5" y="1532.1328"/><text fill="#000000" font-family="sans-serif" font-size="14" lengthAdjust="spacing" textLength="78" x="501.5" y="1553.666">TaskService</text><rect fill="#E2E2F0" height="31.6094" rx="2.5" ry="2.5" style="stroke:#181818;stroke-width:0.5;" width="79" x="647" y="50"/><text fill="#000000" font-family="sans-serif" font-size="14" lengthAdjust="spacing" textLength="65" x="654" y="71.5332">TaskRepo</text><rect fill="#E2E2F0" height="31.6094" rx="2.5" ry="2.5" style="stroke:#181818;stroke-width:0.5;" width="79" x="647" y="1532.1328"/><text fill="#000000" font-family="sans-serif" font-size="14" lengthAdjust="spacing" textLength="65" x="654" y="1553.666">TaskRepo</text><text fill="#000000" font-family="sans-serif" font-size="14" lengthAdjust="spacing" textLength="50" x="802.5" y="79.5332">TaskDB</text><path d="M812.5,29 C812.5,19 830.5,19 830.5,19 C830.5,19 848.5,19 848.5,29 L848.5,55 C848.5,65 830.5,65 830.5,65 C830.5,65 812.5,65 812.5,55 L812.5,29 " fill="#E2E2F0" style="stroke:#181818;stroke-width:1.5;"/><path d="M812.5,29 C812.5,39 830.5,39 830.5,39 C830.5,39 848.5,39 848.5,29 " fill="none" style="stroke:#181818;stroke-width:1.5;"/><text fill="#000000" font-family="sans-serif" font-size="14" lengthAdjust="spacing" textLength="50" x="802.5" y="1546.666">TaskDB</text><path d="M812.5,1559.7422 C812.5,1549.7422 830.5,1549.7422 830.5,1549.7422 C830.5,1549.7422 848.5,1549.7422 848.5,1559.7422 L848.5,1585.7422 C848.5,1595.7422 830.5,1595.7422 830.5,1595.7422 C830.5,1595.7422 812.5,1595.7422 812.5,1585.7422 L812.5,1559.7422 " fill="#E2E2F0" style="stroke:#181818;stroke-width:1.5;"/><path d="M812.5,1559.7422 C812.5,1569.7422 830.5,1569.7422 830.5,1569.7422 C830.5,1569.7422 848.5,1569.7422 848.5,1559.7422 " fill="none" style="stroke:#181818;stroke-width:1.5;"/><rect fill="#E2E2F0" height="31.6094" rx="2.5" ry="2.5" style="stroke:#181818;stroke-width:0.5;" width="112" x="868.5" y="50"/><text fill="#000000" font-family="sans-serif" font-size="14" lengthAdjust="spacing" textLength="98" x="875.5" y="71.5332">EmailScheduler</text><rect fill="#E2E2F0" height="31.6094" rx="2.5" ry="2.5" style="stroke:#181818;stroke-width:0.5;" width="112" x="868.5" y="1532.1328"/><text fill="#000000" font-family="sans-serif" font-size="14" lengthAdjust="spacing" textLength="98" x="875.5" y="1553.666">EmailScheduler</text><polygon fill="#181818" points="213.5,110.9609,223.5,114.9609,213.5,118.9609,217.5,114.9609" style="stroke:#181818;stroke-width:1.0;"/><line style="stroke:#181818;stroke-width:1.0;" x1="22.5" x2="219.5" y1="114.9609" y2="114.9609"/><text fill="#000000" font-family="sans-serif" font-size="13" lengthAdjust="spacing" textLength="108" x="29.5" y="110.1045">POST /create-task</text><polygon fill="#181818" points="357.5,141.3125,367.5,145.3125,357.5,149.3125,361.5,145.3125" style="stroke:#181818;stroke-width:1.0;"/><line style="stroke:#181818;stroke-width:1.0;" x1="225.5" x2="363.5" y1="145.3125" y2="145.3125"/><text fill="#000000" font-family="sans-serif" font-size="13" lengthAdjust="spacing" textLength="72" x="232.5" y="140.4561">createTask()</text><polygon fill="#181818" points="528.5,171.6641,538.5,175.6641,528.5,179.6641,532.5,175.6641" style="stroke:#181818;stroke-width:1.0;"/><line style="stroke:#181818;stroke-width:1.0;" x1="369.5" x2="534.5" y1="175.6641" y2="175.6641"/><text fill="#000000" font-family="sans-serif" font-size="13" lengthAdjust="spacing" textLength="99" x="376.5" y="170.8076">CreateTask(task)</text><polygon fill="#181818" points="674.5,202.0156,684.5,206.0156,674.5,210.0156,678.5,206.0156" style="stroke:#181818;stroke-width:1.0;"/><line style="stroke:#181818;stroke-width:1.0;" x1="540.5" x2="680.5" y1="206.0156" y2="206.0156"/><text fill="#000000" font-family="sans-serif" font-size="13" lengthAdjust="spacing" textLength="99" x="547.5" y="201.1592">CreateTask(task)</text><polygon fill="#181818" points="818.5,232.3672,828.5,236.3672,818.5,240.3672,822.5,236.3672" style="stroke:#181818;stroke-width:1.0;"/><line style="stroke:#181818;stroke-width:1.0;" x1="686.5" x2="824.5" y1="236.3672" y2="236.3672"/><text fill="#000000" font-family="sans-serif" font-size="13" lengthAdjust="spacing" textLength="93" x="693.5" y="231.5107">insertTask(task)</text><polygon fill="#181818" points="697.5,262.7188,687.5,266.7188,697.5,270.7188,693.5,266.7188" style="stroke:#181818;stroke-width:1.0;"/><line style="stroke:#181818;stroke-width:1.0;stroke-dasharray:2.0,2.0;" x1="691.5" x2="829.5" y1="266.7188" y2="266.7188"/><text fill="#000000" font-family="sans-serif" font-size="13" lengthAdjust="spacing" textLength="94" x="703.5" y="261.8623">Success/Failure</text><polygon fill="#181818" points="551.5,293.0703,541.5,297.0703,551.5,301.0703,547.5,297.0703" style="stroke:#181818;stroke-width:1.0;"/><line style="stroke:#181818;stroke-width:1.0;stroke-dasharray:2.0,2.0;" x1="545.5" x2="685.5" y1="297.0703" y2="297.0703"/><text fill="#000000" font-family="sans-serif" font-size="13" lengthAdjust="spacing" textLength="63" x="557.5" y="292.2139">TaskModel</text><polygon fill="#181818" points="912.5,323.4219,922.5,327.4219,912.5,331.4219,916.5,327.4219" style="stroke:#181818;stroke-width:1.0;"/><line style="stroke:#181818;stroke-width:1.0;" x1="540.5" x2="918.5" y1="327.4219" y2="327.4219"/><text fill="#000000" font-family="sans-serif" font-size="13" lengthAdjust="spacing" textLength="217" x="547.5" y="322.5654">cancelScheduledNotifications(task.id)</text><path d="M484.5,342.4219 L545.5,342.4219 L545.5,350.7734 L535.5,360.7734 L484.5,360.7734 L484.5,342.4219 " fill="#EEEEEE" style="stroke:#000000;stroke-width:1.5;"/><rect fill="none" height="48.7031" style="stroke:#000000;stroke-width:1.5;" width="506" x="484.5" y="342.4219"/><text fill="#000000" font-family="sans-serif" font-size="13" font-weight="bold" lengthAdjust="spacing" textLength="16" x="499.5" y="356.917">alt</text><text fill="#000000" font-family="sans-serif" font-size="11" font-weight="bold" lengthAdjust="spacing" textLength="147" x="560.5" y="355.8408">[Email Notification Enabled]</text><polygon fill="#181818" points="912.5,379.125,922.5,383.125,912.5,387.125,916.5,383.125" style="stroke:#181818;stroke-width:1.0;"/><line style="stroke:#181818;stroke-width:1.0;" x1="540.5" x2="918.5" y1="383.125" y2="383.125"/><text fill="#000000" font-family="sans-serif" font-size="13" lengthAdjust="spacing" textLength="156" x="547.5" y="378.2686">scheduleNotifications(task)</text><polygon fill="#181818" points="380.5,416.4766,370.5,420.4766,380.5,424.4766,376.5,420.4766" style="stroke:#181818;stroke-width:1.0;"/><line style="stroke:#181818;stroke-width:1.0;stroke-dasharray:2.0,2.0;" x1="374.5" x2="539.5" y1="420.4766" y2="420.4766"/><text fill="#000000" font-family="sans-serif" font-size="13" lengthAdjust="spacing" textLength="147" x="386.5" y="415.6201">TaskModel, SuccessMsg</text><polygon fill="#181818" points="236.5,446.8281,226.5,450.8281,236.5,454.8281,232.5,450.8281" style="stroke:#181818;stroke-width:1.0;"/><line style="stroke:#181818;stroke-width:1.0;stroke-dasharray:2.0,2.0;" x1="230.5" x2="368.5" y1="450.8281" y2="450.8281"/><text fill="#000000" font-family="sans-serif" font-size="13" lengthAdjust="spacing" textLength="58" x="242.5" y="445.9717">Response</text><polygon fill="#181818" points="33.5,477.1797,23.5,481.1797,33.5,485.1797,29.5,481.1797" style="stroke:#181818;stroke-width:1.0;"/><line style="stroke:#181818;stroke-width:1.0;stroke-dasharray:2.0,2.0;" x1="27.5" x2="224.5" y1="481.1797" y2="481.1797"/><text fill="#000000" font-family="sans-serif" font-size="13" lengthAdjust="spacing" textLength="58" x="39.5" y="476.3232">Response</text><polygon fill="#181818" points="213.5,507.5313,223.5,511.5313,213.5,515.5313,217.5,511.5313" style="stroke:#181818;stroke-width:1.0;"/><line style="stroke:#181818;stroke-width:1.0;" x1="22.5" x2="219.5" y1="511.5313" y2="511.5313"/><text fill="#000000" font-family="sans-serif" font-size="13" lengthAdjust="spacing" textLength="101" x="29.5" y="506.6748">PUT /update-task</text><polygon fill="#181818" points="357.5,537.8828,367.5,541.8828,357.5,545.8828,361.5,541.8828" style="stroke:#181818;stroke-width:1.0;"/><line style="stroke:#181818;stroke-width:1.0;" x1="225.5" x2="363.5" y1="541.8828" y2="541.8828"/><text fill="#000000" font-family="sans-serif" font-size="13" lengthAdjust="spacing" textLength="75" x="232.5" y="537.0264">updateTask()</text><polygon fill="#181818" points="528.5,568.2344,538.5,572.2344,528.5,576.2344,532.5,572.2344" style="stroke:#181818;stroke-width:1.0;"/><line style="stroke:#181818;stroke-width:1.0;" x1="369.5" x2="534.5" y1="572.2344" y2="572.2344"/><text fill="#000000" font-family="sans-serif" font-size="13" lengthAdjust="spacing" textLength="102" x="376.5" y="567.3779">UpdateTask(task)</text><polygon fill="#181818" points="674.5,598.5859,684.5,602.5859,674.5,606.5859,678.5,602.5859" style="stroke:#181818;stroke-width:1.0;"/><line style="stroke:#181818;stroke-width:1.0;" x1="540.5" x2="680.5" y1="602.5859" y2="602.5859"/><text fill="#000000" font-family="sans-serif" font-size="13" lengthAdjust="spacing" textLength="102" x="547.5" y="597.7295">UpdateTask(task)</text><polygon fill="#181818" points="818.5,628.9375,828.5,632.9375,818.5,636.9375,822.5,632.9375" style="stroke:#181818;stroke-width:1.0;"/><line style="stroke:#181818;stroke-width:1.0;" x1="686.5" x2="824.5" y1="632.9375" y2="632.9375"/><text fill="#000000" font-family="sans-serif" font-size="13" lengthAdjust="spacing" textLength="100" x="693.5" y="628.0811">updateTask(task)</text><polygon fill="#181818" points="697.5,659.2891,687.5,663.2891,697.5,667.2891,693.5,663.2891" style="stroke:#181818;stroke-width:1.0;"/><line style="stroke:#181818;stroke-width:1.0;stroke-dasharray:2.0,2.0;" x1="691.5" x2="829.5" y1="663.2891" y2="663.2891"/><text fill="#000000" font-family="sans-serif" font-size="13" lengthAdjust="spacing" textLength="94" x="703.5" y="658.4326">Success/Failure</text><polygon fill="#181818" points="551.5,689.6406,541.5,693.6406,551.5,697.6406,547.5,693.6406" style="stroke:#181818;stroke-width:1.0;"/><line style="stroke:#181818;stroke-width:1.0;stroke-dasharray:2.0,2.0;" x1="545.5" x2="685.5" y1="693.6406" y2="693.6406"/><text fill="#000000" font-family="sans-serif" font-size="13" lengthAdjust="spacing" textLength="63" x="557.5" y="688.7842">TaskModel</text><polygon fill="#181818" points="912.5,719.9922,922.5,723.9922,912.5,727.9922,916.5,723.9922" style="stroke:#181818;stroke-width:1.0;"/><line style="stroke:#181818;stroke-width:1.0;" x1="540.5" x2="918.5" y1="723.9922" y2="723.9922"/><text fill="#000000" font-family="sans-serif" font-size="13" lengthAdjust="spacing" textLength="217" x="547.5" y="719.1357">cancelScheduledNotifications(task.id)</text><path d="M484.5,738.9922 L545.5,738.9922 L545.5,747.3438 L535.5,757.3438 L484.5,757.3438 L484.5,738.9922 " fill="#EEEEEE" style="stroke:#000000;stroke-width:1.5;"/><rect fill="none" height="48.7031" style="stroke:#000000;stroke-width:1.5;" width="506" x="484.5" y="738.9922"/><text fill="#000000" font-family="sans-serif" font-size="13" font-weight="bold" lengthAdjust="spacing" textLength="16" x="499.5" y="753.4873">alt</text><text fill="#000000" font-family="sans-serif" font-size="11" font-weight="bold" lengthAdjust="spacing" textLength="147" x="560.5" y="752.4111">[Email Notification Enabled]</text><polygon fill="#181818" points="912.5,775.6953,922.5,779.6953,912.5,783.6953,916.5,779.6953" style="stroke:#181818;stroke-width:1.0;"/><line style="stroke:#181818;stroke-width:1.0;" x1="540.5" x2="918.5" y1="779.6953" y2="779.6953"/><text fill="#000000" font-family="sans-serif" font-size="13" lengthAdjust="spacing" textLength="156" x="547.5" y="774.8389">scheduleNotifications(task)</text><polygon fill="#181818" points="380.5,813.0469,370.5,817.0469,380.5,821.0469,376.5,817.0469" style="stroke:#181818;stroke-width:1.0;"/><line style="stroke:#181818;stroke-width:1.0;stroke-dasharray:2.0,2.0;" x1="374.5" x2="539.5" y1="817.0469" y2="817.0469"/><text fill="#000000" font-family="sans-serif" font-size="13" lengthAdjust="spacing" textLength="147" x="386.5" y="812.1904">TaskModel, SuccessMsg</text><polygon fill="#181818" points="236.5,843.3984,226.5,847.3984,236.5,851.3984,232.5,847.3984" style="stroke:#181818;stroke-width:1.0;"/><line style="stroke:#181818;stroke-width:1.0;stroke-dasharray:2.0,2.0;" x1="230.5" x2="368.5" y1="847.3984" y2="847.3984"/><text fill="#000000" font-family="sans-serif" font-size="13" lengthAdjust="spacing" textLength="58" x="242.5" y="842.542">Response</text><polygon fill="#181818" points="33.5,873.75,23.5,877.75,33.5,881.75,29.5,877.75" style="stroke:#181818;stroke-width:1.0;"/><line style="stroke:#181818;stroke-width:1.0;stroke-dasharray:2.0,2.0;" x1="27.5" x2="224.5" y1="877.75" y2="877.75"/><text fill="#000000" font-family="sans-serif" font-size="13" lengthAdjust="spacing" textLength="58" x="39.5" y="872.8936">Response</text><polygon fill="#181818" points="213.5,904.1016,223.5,908.1016,213.5,912.1016,217.5,908.1016" style="stroke:#181818;stroke-width:1.0;"/><line style="stroke:#181818;stroke-width:1.0;" x1="22.5" x2="219.5" y1="908.1016" y2="908.1016"/><text fill="#000000" font-family="sans-serif" font-size="13" lengthAdjust="spacing" textLength="179" x="29.5" y="903.2451">DELETE /delete-task/:email/:id</text><polygon fill="#181818" points="357.5,934.4531,367.5,938.4531,357.5,942.4531,361.5,938.4531" style="stroke:#181818;stroke-width:1.0;"/><line style="stroke:#181818;stroke-width:1.0;" x1="225.5" x2="363.5" y1="938.4531" y2="938.4531"/><text fill="#000000" font-family="sans-serif" font-size="13" lengthAdjust="spacing" textLength="120" x="232.5" y="933.5967">deleteTask(email, id)</text><polygon fill="#181818" points="528.5,964.8047,538.5,968.8047,528.5,972.8047,532.5,968.8047" style="stroke:#181818;stroke-width:1.0;"/><line style="stroke:#181818;stroke-width:1.0;" x1="369.5" x2="534.5" y1="968.8047" y2="968.8047"/><text fill="#000000" font-family="sans-serif" font-size="13" lengthAdjust="spacing" textLength="122" x="376.5" y="963.9482">DeleteTask(email, id)</text><polygon fill="#181818" points="674.5,995.1563,684.5,999.1563,674.5,1003.1563,678.5,999.1563" style="stroke:#181818;stroke-width:1.0;"/><line style="stroke:#181818;stroke-width:1.0;" x1="540.5" x2="680.5" y1="999.1563" y2="999.1563"/><text fill="#000000" font-family="sans-serif" font-size="13" lengthAdjust="spacing" textLength="122" x="547.5" y="994.2998">DeleteTask(email, id)</text><polygon fill="#181818" points="818.5,1025.5078,828.5,1029.5078,818.5,1033.5078,822.5,1029.5078" style="stroke:#181818;stroke-width:1.0;"/><line style="stroke:#181818;stroke-width:1.0;" x1="686.5" x2="824.5" y1="1029.5078" y2="1029.5078"/><text fill="#000000" font-family="sans-serif" font-size="13" lengthAdjust="spacing" textLength="120" x="693.5" y="1024.6514">deleteTask(email, id)</text><polygon fill="#181818" points="697.5,1055.8594,687.5,1059.8594,697.5,1063.8594,693.5,1059.8594" style="stroke:#181818;stroke-width:1.0;"/><line style="stroke:#181818;stroke-width:1.0;stroke-dasharray:2.0,2.0;" x1="691.5" x2="829.5" y1="1059.8594" y2="1059.8594"/><text fill="#000000" font-family="sans-serif" font-size="13" lengthAdjust="spacing" textLength="94" x="703.5" y="1055.0029">Success/Failure</text><polygon fill="#181818" points="551.5,1086.2109,541.5,1090.2109,551.5,1094.2109,547.5,1090.2109" style="stroke:#181818;stroke-width:1.0;"/><line style="stroke:#181818;stroke-width:1.0;stroke-dasharray:2.0,2.0;" x1="545.5" x2="685.5" y1="1090.2109" y2="1090.2109"/><text fill="#000000" font-family="sans-serif" font-size="13" lengthAdjust="spacing" textLength="94" x="557.5" y="1085.3545">Success/Failure</text><polygon fill="#181818" points="912.5,1116.5625,922.5,1120.5625,912.5,1124.5625,916.5,1120.5625" style="stroke:#181818;stroke-width:1.0;"/><line style="stroke:#181818;stroke-width:1.0;" x1="540.5" x2="918.5" y1="1120.5625" y2="1120.5625"/><text fill="#000000" font-family="sans-serif" font-size="13" lengthAdjust="spacing" textLength="188" x="547.5" y="1115.7061">cancelScheduledNotifications(id)</text><polygon fill="#181818" points="380.5,1146.9141,370.5,1150.9141,380.5,1154.9141,376.5,1150.9141" style="stroke:#181818;stroke-width:1.0;"/><line style="stroke:#181818;stroke-width:1.0;stroke-dasharray:2.0,2.0;" x1="374.5" x2="539.5" y1="1150.9141" y2="1150.9141"/><text fill="#000000" font-family="sans-serif" font-size="13" lengthAdjust="spacing" textLength="94" x="386.5" y="1146.0576">Success/Failure</text><polygon fill="#181818" points="236.5,1177.2656,226.5,1181.2656,236.5,1185.2656,232.5,1181.2656" style="stroke:#181818;stroke-width:1.0;"/><line style="stroke:#181818;stroke-width:1.0;stroke-dasharray:2.0,2.0;" x1="230.5" x2="368.5" y1="1181.2656" y2="1181.2656"/><text fill="#000000" font-family="sans-serif" font-size="13" lengthAdjust="spacing" textLength="58" x="242.5" y="1176.4092">Response</text><polygon fill="#181818" points="33.5,1207.6172,23.5,1211.6172,33.5,1215.6172,29.5,1211.6172" style="stroke:#181818;stroke-width:1.0;"/><line style="stroke:#181818;stroke-width:1.0;stroke-dasharray:2.0,2.0;" x1="27.5" x2="224.5" y1="1211.6172" y2="1211.6172"/><text fill="#000000" font-family="sans-serif" font-size="13" lengthAdjust="spacing" textLength="58" x="39.5" y="1206.7607">Response</text><polygon fill="#181818" points="213.5,1237.9688,223.5,1241.9688,213.5,1245.9688,217.5,1241.9688" style="stroke:#181818;stroke-width:1.0;"/><line style="stroke:#181818;stroke-width:1.0;" x1="22.5" x2="219.5" y1="1241.9688" y2="1241.9688"/><text fill="#000000" font-family="sans-serif" font-size="13" lengthAdjust="spacing" textLength="105" x="29.5" y="1237.1123">GET /tasks/:email</text><polygon fill="#181818" points="357.5,1268.3203,367.5,1272.3203,357.5,1276.3203,361.5,1272.3203" style="stroke:#181818;stroke-width:1.0;"/><line style="stroke:#181818;stroke-width:1.0;" x1="225.5" x2="363.5" y1="1272.3203" y2="1272.3203"/><text fill="#000000" font-family="sans-serif" font-size="13" lengthAdjust="spacing" textLength="107" x="232.5" y="1267.4639">getAllTasks(email)</text><polygon fill="#181818" points="528.5,1298.6719,538.5,1302.6719,528.5,1306.6719,532.5,1302.6719" style="stroke:#181818;stroke-width:1.0;"/><line style="stroke:#181818;stroke-width:1.0;" x1="369.5" x2="534.5" y1="1302.6719" y2="1302.6719"/><text fill="#000000" font-family="sans-serif" font-size="13" lengthAdjust="spacing" textLength="110" x="376.5" y="1297.8154">GetAllTasks(email)</text><polygon fill="#181818" points="674.5,1329.0234,684.5,1333.0234,674.5,1337.0234,678.5,1333.0234" style="stroke:#181818;stroke-width:1.0;"/><line style="stroke:#181818;stroke-width:1.0;" x1="540.5" x2="680.5" y1="1333.0234" y2="1333.0234"/><text fill="#000000" font-family="sans-serif" font-size="13" lengthAdjust="spacing" textLength="110" x="547.5" y="1328.167">GetAllTasks(email)</text><polygon fill="#181818" points="818.5,1359.375,828.5,1363.375,818.5,1367.375,822.5,1363.375" style="stroke:#181818;stroke-width:1.0;"/><line style="stroke:#181818;stroke-width:1.0;" x1="686.5" x2="824.5" y1="1363.375" y2="1363.375"/><text fill="#000000" font-family="sans-serif" font-size="13" lengthAdjust="spacing" textLength="92" x="693.5" y="1358.5186">getTasks(email)</text><polygon fill="#181818" points="697.5,1389.7266,687.5,1393.7266,697.5,1397.7266,693.5,1393.7266" style="stroke:#181818;stroke-width:1.0;"/><line style="stroke:#181818;stroke-width:1.0;stroke-dasharray:2.0,2.0;" x1="691.5" x2="829.5" y1="1393.7266" y2="1393.7266"/><text fill="#000000" font-family="sans-serif" font-size="13" lengthAdjust="spacing" textLength="56" x="703.5" y="1388.8701">TasksList</text><polygon fill="#181818" points="551.5,1420.0781,541.5,1424.0781,551.5,1428.0781,547.5,1424.0781" style="stroke:#181818;stroke-width:1.0;"/><line style="stroke:#181818;stroke-width:1.0;stroke-dasharray:2.0,2.0;" x1="545.5" x2="685.5" y1="1424.0781" y2="1424.0781"/><text fill="#000000" font-family="sans-serif" font-size="13" lengthAdjust="spacing" textLength="56" x="557.5" y="1419.2217">TasksList</text><polygon fill="#181818" points="380.5,1450.4297,370.5,1454.4297,380.5,1458.4297,376.5,1454.4297" style="stroke:#181818;stroke-width:1.0;"/><line style="stroke:#181818;stroke-width:1.0;stroke-dasharray:2.0,2.0;" x1="374.5" x2="539.5" y1="1454.4297" y2="1454.4297"/><text fill="#000000" font-family="sans-serif" font-size="13" lengthAdjust="spacing" textLength="89" x="386.5" y="1449.5732">TasksList, Msg</text><polygon fill="#181818" points="236.5,1480.7813,226.5,1484.7813,236.5,1488.7813,232.5,1484.7813" style="stroke:#181818;stroke-width:1.0;"/><line style="stroke:#181818;stroke-width:1.0;stroke-dasharray:2.0,2.0;" x1="230.5" x2="368.5" y1="1484.7813" y2="1484.7813"/><text fill="#000000" font-family="sans-serif" font-size="13" lengthAdjust="spacing" textLength="58" x="242.5" y="1479.9248">Response</text><polygon fill="#181818" points="33.5,1511.1328,23.5,1515.1328,33.5,1519.1328,29.5,1515.1328" style="stroke:#181818;stroke-width:1.0;"/><line style="stroke:#181818;stroke-width:1.0;stroke-dasharray:2.0,2.0;" x1="27.5" x2="224.5" y1="1515.1328" y2="1515.1328"/><text fill="#000000" font-family="sans-serif" font-size="13" lengthAdjust="spacing" textLength="58" x="39.5" y="1510.2764">Response</text><!--SRC=[xPJ1JeGm48RlVOg99pVPbJi74n7qigj6TX-Wbb4R4GWj9hwzBGLsIykoKUD9JhJpJMUc_m-KoRA6dS2QLBIMdF6A5XBEqayXyVqCg03pQeUtLBnTbuMiopp7kiNiBHTFiVxW30UsMxlW8rRbGEa5oQYaJrIWYSVH48qZEprvfpnFsIjcJT-MlKM87XLMbzrK8JpSfri8M8rKuaggCuc9QCOUAGH3wTtp1R63FTvD5SBrdjMd6hwBzh0UReBKeHwBen1ueVgM8oYEO6KTbJQCeH31ZPgvgV7Wf75xUh4fCyp7VTdtfMQc1SDX8xih9N_cZ4fU5g9jvO9d2q9pQJBX482ae4ygYO1wPkg8xjKji21OP7QR7cs6WPRzBMp4YoFIWV2FA2fL0WUzLKoRuo3YccMdlD9KsGbUCTHfNjdjsHclUCcnLneVzE-LF_PAdAoJRGA1AeETNO8GzIH1oBCZpZ49hNmjlWHzQpCMYYUJl3wQniTcckxc1uxoaT_rbJEdvqfzzNvHwjj4_HQqmA9J-8YwBoYlybpl2dEXizBU-ZEykawmOr5L4mxZoDaIQoxapAzXpynzSosvX9z_R5y0]--></g></svg>